<?xml version="1.0" encoding="UTF-8"?><svg id="Stacked_Sticker" xmlns="http://www.w3.org/2000/svg" viewBox="0 0 330.8 394.73"><defs><style>.cls-1{fill:#000;stroke-width:0px;}</style></defs><g id="Stacked_Sticker-2"><path class="cls-1" d="M201.71,66.06h1.96c2.37,0,4.44-.85,6.15-2.53,1.71-1.69,2.58-3.75,2.58-6.12s-.87-4.45-2.58-6.16c-1.71-1.71-3.78-2.57-6.16-2.57h-1.96c-2.38,0-4.44.86-6.13,2.58-1.68,1.71-2.53,3.78-2.53,6.16s.86,4.44,2.54,6.12c1.68,1.68,3.74,2.54,6.12,2.54Z"/><path class="cls-1" d="M284.74,48.67h-1.96c-1.56,0-3.03.39-4.37,1.18-1.34.78-2.4,1.86-3.15,3.2-.75,1.33-1.14,2.8-1.14,4.36,0,2.38.86,4.44,2.54,6.12,1.68,1.68,3.74,2.54,6.12,2.54h1.96c2.37,0,4.45-.85,6.15-2.53,1.71-1.69,2.58-3.75,2.58-6.12s-.87-4.45-2.58-6.16c-1.71-1.71-3.78-2.57-6.16-2.57Z"/><path class="cls-1" d="M122.67,66.06h1.95c2.37,0,4.44-.85,6.15-2.53,1.71-1.69,2.58-3.75,2.58-6.12s-.87-4.45-2.58-6.16c-1.71-1.71-3.78-2.57-6.16-2.57h-1.95c-1.57,0-3.04.39-4.37,1.18-1.34.78-2.4,1.86-3.15,3.2-.75,1.33-1.14,2.8-1.14,4.36,0,2.38.86,4.44,2.54,6.12,1.68,1.68,3.74,2.54,6.12,2.54Z"/><path class="cls-1" d="M251.54,52.68c-1.74-2.66-4.21-4.01-7.33-4.01h-1.96c-3.12,0-5.6,1.35-7.33,4.01l-.92,1.41h18.46l-.92-1.41Z"/><path class="cls-1" d="M306.95,0H23.84C10.68,0,0,10.68,0,23.84v347.05c0,13.17,10.68,23.84,23.84,23.84h283.11c13.17,0,23.84-10.68,23.84-23.84V23.84c0-13.17-10.68-23.84-23.84-23.84ZM229.4,44.55c3.54-3.54,7.86-5.33,12.85-5.33h1.96c3.26,0,6.33.82,9.13,2.43,2.79,1.6,5.02,3.84,6.63,6.63,1.61,2.79,2.42,5.86,2.42,9.13,0,1.1-.1,2.21-.3,3.31h-28.11l.94,1.41c1.74,2.61,4.2,3.93,7.33,3.93h1.96c1.97,0,3.77-.61,5.32-1.8h11.52c-1.29,3.12-3.36,5.76-6.15,7.82-3.14,2.32-6.73,3.5-10.69,3.5h-1.96c-4.99,0-9.31-1.79-12.85-5.33-3.54-3.54-5.33-7.86-5.33-12.85s1.79-9.32,5.33-12.86ZM145.03,39.22h9.52v18.19c0,2.38.86,4.44,2.54,6.12,1.68,1.68,3.71,2.54,6.04,2.54,1.57,0,3.04-.4,4.37-1.18,1.33-.78,2.39-1.84,3.14-3.14.76-1.31,1.14-2.76,1.14-4.33v-18.19h9.52v18.19c0,4.94-1.79,9.26-5.33,12.82-3.53,3.56-7.86,5.36-12.85,5.36s-9.24-1.8-12.77-5.36c-3.54-3.56-5.33-7.88-5.33-12.82v-18.19ZM109.82,44.55c3.54-3.54,7.86-5.33,12.86-5.33h1.95c4.99,0,9.31,1.79,12.85,5.33,3.54,3.54,5.33,7.86,5.33,12.86s-1.79,9.31-5.33,12.85c-3.54,3.54-7.86,5.33-12.85,5.33h-1.95c-5,0-9.32-1.79-12.86-5.33-3.54-3.54-5.33-7.86-5.33-12.85s1.79-9.32,5.33-12.86ZM83.04,57.41c0-4.99,1.8-9.32,5.33-12.86,3.54-3.54,7.86-5.33,12.86-5.33h1.05v9.45h-1.05c-2.38,0-4.45.86-6.13,2.58-1.68,1.71-2.53,3.78-2.53,6.16v18.18h-9.53v-18.18ZM27.88,48.43c.05-3.36.75-6.62,2.07-9.71,1.38-3.24,3.26-6.07,5.6-8.4,2.33-2.33,5.16-4.22,8.4-5.6,3.1-1.32,6.36-2.01,9.71-2.07.18,0,.35,0,.52,0,1.43,0,2.87.13,4.28.37,1.44.26,2.83.6,4.14,1.03,1.29.42,2.58.97,3.8,1.62,1.23.65,2.4,1.41,3.47,2.23,1.09.83,2.12,1.75,3.07,2.73.72.74,1.4,1.53,2.03,2.37l-8.54,4.37-.14.07c-1.23-1.31-2.57-2.37-4.02-3.2-.03-.03-.06-.04-.09-.05-2.34-1.24-5-1.93-7.83-1.93-9.31,0-16.87,7.56-16.87,16.87s7.56,16.87,16.87,16.87c2.33,0,4.55-.47,6.57-1.33.14-.06.29-.12.43-.2,2.33-1.07,4.39-2.65,6.01-4.6,0,0,0-.01.01-.01,1.44-1.75,2.53-3.78,3.18-6.01h-17.95v-9.45h27.81c.27,1.53.42,3.11.42,4.73,0,1.05-.06,2.09-.18,3.11-.21,1.83-.61,3.61-1.18,5.3-2.26,6.75-7.16,12.28-13.48,15.38-3.38,1.65-7.17,2.61-11.18,2.67-.15,0-.3,0-.45,0-.23,0-.46,0-.69,0-14.07-.36-25.41-11.7-25.77-25.77,0-.24,0-.46,0-.69s0-.46,0-.69ZM302.92,366.54H27.87V91.49h155.66v-34.08c0-4.99,1.79-9.32,5.33-12.86,3.54-3.54,7.86-5.33,12.85-5.33h1.96c4.99,0,9.31,1.79,12.85,5.33,3.54,3.54,5.33,7.86,5.33,12.86s-1.79,9.31-5.33,12.85c-3.54,3.54-7.86,5.33-12.85,5.33h-1.96c-2.57,0-5.05-.52-7.37-1.56l-1.28-.58v18.04h109.87v275.05ZM302.92,57.41c0,4.99-1.79,9.31-5.33,12.85-3.54,3.54-7.86,5.33-12.85,5.33h-1.96c-4.99,0-9.31-1.79-12.85-5.33-3.54-3.54-5.33-7.86-5.33-12.85s1.79-9.32,5.33-12.86c3.54-3.54,7.86-5.33,12.85-5.33h1.96c2.58,0,5.09.53,7.46,1.57l1.27.56v-18.71h9.45v34.77Z"/><path class="cls-1" d="M287.41,218.18h-122.01c-5.98,0-10.83,4.85-10.83,10.83s4.85,10.83,10.83,10.83h36.47c-4.68,15.72-19.25,27.21-36.46,27.21-21.83,0-39.43-18.48-37.96-40.62,1.26-19.1,16.93-34.5,36.06-35.42,10.04-.49,19.6,2.88,27.02,9.42,1.04.91,2.6.87,3.57-.1l11.64-11.64c1.05-1.05,1.02-2.78-.08-3.78-11.03-10.08-25.21-15.6-40.24-15.6-32.98,0-60.22,27.68-59.7,60.66.51,32.49,27.1,58.76,59.7,58.76,29.22,0,53.6-21.11,58.71-48.88h11c-5.23,33.77-34.49,59.71-69.71,59.71-38.96,0-70.65-31.75-70.54-70.73.1-37.51,30.08-68.74,67.56-70.29,18.83-.78,36.79,5.83,50.57,18.46,1.03.94,2.62.88,3.6-.11l11.53-11.74c1.04-1.06.98-2.76-.11-3.77-17.27-16.01-39.63-24.72-63.23-24.56-49.49.33-90.26,40.27-91.55,89.75-1.36,51.96,40.51,94.67,92.18,94.67,47.18,0,86.19-35.62,91.57-81.38h10.85c-5.42,51.73-49.29,92.19-102.43,92.19-57.02,0-103.35-46.54-103.02-103.63.32-54.31,43.38-99.51,97.63-102.27,28.59-1.46,55.83,8.69,76.4,28.28,1.04.99,2.66.99,3.67-.03l11.59-11.63c1.03-1.03,1.03-2.71-.02-3.71-23.04-22.17-53.11-34.41-85.04-34.71-68.51-.64-125.21,54.93-125.88,123.44-.68,69.36,55.53,125.93,124.68,125.93,42.75,0,80.56-21.61,103.02-54.49v43.66c0,5.98,4.85,10.83,10.83,10.83h0c5.98,0,10.83-4.85,10.83-10.83v-122.01c0-1.48-1.2-2.68-2.68-2.68Z"/></g></svg>