<?xml version="1.0" encoding="UTF-8"?><svg id="Grouped_Typemark" xmlns="http://www.w3.org/2000/svg" viewBox="0 0 593.32 150"><defs><style>.cls-1{fill:#e9e3d9;stroke-width:0px;}</style></defs><g id="Grouped_Typemark-2"><path class="cls-1" d="M158.23,35.77c-10.77,0-20.11,3.86-27.74,11.49-7.61,7.63-11.49,16.96-11.49,27.74v39.21h20.56v-39.21c0-5.13,1.83-9.6,5.46-13.28,3.62-3.69,8.08-5.56,13.21-5.56h2.26v-20.39h-2.26Z"/><path class="cls-1" d="M236.44,47.26c-7.63-7.63-16.95-11.49-27.72-11.49h-4.22c-10.77,0-20.11,3.86-27.74,11.49-7.63,7.63-11.49,16.96-11.49,27.74s3.86,20.09,11.49,27.72c7.63,7.63,16.95,11.49,27.74,11.49h4.22c10.77,0,20.09-3.86,27.72-11.49,7.63-7.63,11.49-16.95,11.49-27.72s-3.86-20.11-11.49-27.74ZM221.98,88.21c-3.68,3.62-8.15,5.46-13.27,5.46h-4.22c-5.15,0-9.59-1.85-13.21-5.47-3.62-3.62-5.47-8.07-5.47-13.2,0-3.37.83-6.53,2.45-9.4,1.62-2.89,3.91-5.2,6.8-6.9,2.88-1.69,6.05-2.54,9.43-2.54h4.22c5.12,0,9.59,1.86,13.28,5.54,3.68,3.69,5.56,8.16,5.56,13.3s-1.88,9.57-5.57,13.21Z"/><path class="cls-1" d="M310.44,35.77v39.23c0,3.37-.83,6.51-2.47,9.33-1.62,2.82-3.91,5.1-6.78,6.78-2.88,1.69-6.05,2.55-9.43,2.55-5.02,0-9.41-1.85-13.03-5.47-3.62-3.62-5.47-8.07-5.47-13.2v-39.23h-20.54v39.23c0,10.66,3.86,19.97,11.49,27.65,7.63,7.67,16.89,11.56,27.55,11.56s20.11-3.89,27.72-11.56c7.64-7.68,11.51-16.99,11.51-27.65v-39.23h-20.54Z"/><path class="cls-1" d="M406.94,47.26c-7.63-7.63-16.96-11.49-27.72-11.49h-4.23c-10.77,0-20.09,3.86-27.72,11.49-7.63,7.63-11.49,16.96-11.49,27.74v75h20.54v-40.4l2.76,1.24c5.01,2.24,10.36,3.37,15.91,3.37h4.23c10.77,0,20.09-3.86,27.72-11.49,7.63-7.63,11.49-16.95,11.49-27.72s-3.86-20.11-11.49-27.74ZM392.48,88.21c-3.68,3.62-8.15,5.46-13.27,5.46h-4.23c-5.13,0-9.57-1.85-13.2-5.47-3.62-3.62-5.47-8.07-5.47-13.2s1.83-9.6,5.46-13.28c3.64-3.69,8.08-5.56,13.21-5.56h4.23c5.12,0,9.59,1.86,13.28,5.54,3.68,3.69,5.56,8.16,5.56,13.3s-1.88,9.57-5.57,13.21Z"/><path class="cls-1" d="M505.87,75c0-7.05-1.75-13.68-5.22-19.7-3.47-6.02-8.28-10.84-14.3-14.3-6.04-3.47-12.66-5.23-19.7-5.23h-4.23c-10.77,0-20.09,3.86-27.72,11.49-7.63,7.63-11.49,16.96-11.49,27.74s3.86,20.09,11.49,27.72c7.63,7.63,16.95,11.49,27.72,11.49h4.23c8.53,0,16.29-2.54,23.05-7.54,6.02-4.46,10.48-10.14,13.27-16.88h-24.84c-3.36,2.57-7.22,3.88-11.48,3.88h-4.23c-6.74,0-12.06-2.85-15.81-8.47l-2.03-3.05h60.63c.44-2.38.65-4.78.65-7.15ZM444.63,67.85l1.97-3.05c3.75-5.74,9.08-8.64,15.82-8.64h4.23c6.74,0,12.07,2.9,15.82,8.64l1.97,3.05h-39.82Z"/><path class="cls-1" d="M572.94,0v40.36l-2.75-1.2c-5.12-2.24-10.53-3.38-16.09-3.38h-4.23c-10.77,0-20.09,3.86-27.72,11.49-7.63,7.63-11.49,16.96-11.49,27.74s3.86,20.09,11.49,27.72c7.63,7.63,16.95,11.49,27.72,11.49h4.23c10.77,0,20.09-3.86,27.72-11.49,7.63-7.63,11.49-16.95,11.49-27.72V0h-20.38ZM567.37,88.21c-3.68,3.62-8.15,5.46-13.27,5.46h-4.23c-5.13,0-9.57-1.85-13.2-5.47-3.62-3.62-5.47-8.07-5.47-13.2,0-3.37.83-6.53,2.45-9.4,1.62-2.89,3.91-5.2,6.8-6.9,2.88-1.69,6.05-2.54,9.42-2.54h4.23c5.12,0,9.59,1.86,13.28,5.54,3.68,3.69,5.56,8.16,5.56,13.3s-1.88,9.57-5.57,13.21Z"/><path class="cls-1" d="M114.21,57.11c0,2.27-.13,4.51-.39,6.71-.45,3.95-1.33,7.78-2.55,11.44-4.86,14.55-15.45,26.49-29.08,33.18-7.29,3.57-15.47,5.63-24.11,5.77-.32.01-.65.01-.97.01-.49,0-.99,0-1.49-.01C25.25,113.42.79,88.96.01,58.6c-.01-.51-.01-1-.01-1.49s0-.99.01-1.48c.11-7.25,1.62-14.28,4.47-20.95,2.98-6.99,7.04-13.09,12.07-18.12,5.03-5.03,11.13-9.09,18.12-12.08C41.36,1.62,48.39.13,55.63.01c.38,0,.75-.01,1.11-.01,3.09.01,6.19.28,9.22.8,3.1.55,6.11,1.3,8.94,2.21,2.79.92,5.56,2.09,8.21,3.5,2.65,1.41,5.17,3.03,7.49,4.81,2.34,1.79,4.57,3.76,6.63,5.88,1.55,1.59,3.02,3.3,4.39,5.1l-18.43,9.42-.31.16c-2.65-2.82-5.54-5.12-8.67-6.9-.07-.06-.13-.08-.2-.1-5.05-2.68-10.79-4.17-16.89-4.17-20.09,0-36.39,16.3-36.39,36.39s16.3,36.39,36.39,36.39c5.03,0,9.81-1.02,14.17-2.86.31-.13.62-.27.93-.42,5.03-2.3,9.46-5.71,12.96-9.93,0-.01.01-.03.03-.03,3.1-3.76,5.46-8.15,6.85-12.96h-38.72v-20.39h59.98c.59,3.3.9,6.71.9,10.19Z"/></g></svg>