<?xml version="1.0" encoding="UTF-8"?><svg id="Layer_1" xmlns="http://www.w3.org/2000/svg" viewBox="0 0 601 312"><defs><style>.cls-1{font-size:57.43px;}.cls-1,.cls-2{fill:#131324;font-family:GambarRegular, Gambar;}.cls-2{font-size:77.19px;letter-spacing:.01em;}.cls-3{letter-spacing:0em;}.cls-4{fill:#d76727;}.cls-4,.cls-5,.cls-6,.cls-7{stroke-width:0px;}.cls-8{letter-spacing:0em;}.cls-5{fill:#f9f6de;}.cls-6{fill:#fdb614;}.cls-9{letter-spacing:-.02em;}.cls-7{fill:#577abd;}</style></defs><rect class="cls-5" width="601" height="312" rx="13.51" ry="13.51"/><text class="cls-2" transform="translate(150.34 131.96)"><tspan x="0" y="0">Grouped</tspan></text><text class="cls-1" transform="translate(145.65 212.95)"><tspan class="cls-9" x="0" y="0">2</tspan><tspan class="cls-3" x="40.15" y="0">0</tspan></text><text class="cls-1" transform="translate(389.75 212.95)"><tspan class="cls-8" x="0" y="0">2</tspan><tspan class="cls-3" x="41.01" y="0">6</tspan></text><path class="cls-4" d="M348.16,225.3c0,7.75-2.25,14.97-6.12,21.07h13.71c2.89-6.44,4.51-13.56,4.51-21.07h-12.1ZM257.21,225.29c0,7.5,1.62,14.64,4.51,21.08h13.71c-3.87-6.1-6.12-13.33-6.12-21.08,0-21.73,17.68-39.43,39.43-39.43,5.88,0,11.46,1.3,16.47,3.61l5.88-10.62c-6.76-3.26-14.34-5.09-22.35-5.09-28.42,0-51.53,23.11-51.53,51.53ZM305.65,276.73c1.02.06,2.04.09,3.09.09s2.06-.03,3.09-.09h-6.17Z"/><path class="cls-7" d="M305.17,258.48c1.17.13,2.36.19,3.57.19s2.4-.06,3.57-.19h-7.14ZM330,225.3c0,10.79-8.09,19.73-18.52,21.07h23.1c4.7-5.75,7.52-13.08,7.52-21.07h-12.1ZM308.74,204.03c2.69,0,5.27.5,7.63,1.42l5.9-10.65c-4.13-1.84-8.72-2.87-13.53-2.87-18.4,0-33.37,14.96-33.37,33.36,0,7.99,2.82,15.33,7.52,21.08h23.11c-10.43-1.34-18.52-10.29-18.52-21.08,0-11.72,9.54-21.26,21.26-21.26Z"/><path class="cls-6" d="M479.34,17.01H138.18c-32.52,0-58.96,26.45-58.96,58.96v160.06c0,32.51,26.45,58.96,58.96,58.96h341.16c32.51,0,58.96-26.45,58.96-58.96V75.97c0-32.51-26.45-58.96-58.96-58.96ZM526.19,236.03c0,25.83-21.01,46.86-46.85,46.86H138.18c-25.83,0-46.86-21.02-46.86-46.86V75.97c0-25.83,21.02-46.85,46.86-46.85h341.16c25.83,0,46.85,21.01,46.85,46.85v160.06Z"/><path class="cls-6" d="M251.15,225.29c0,7.44,1.41,14.55,3.99,21.08h-12.83c-2.12-6.65-3.26-13.73-3.26-21.08,0-38.43,31.26-69.7,69.7-69.7,11.19,0,21.77,2.65,31.15,7.36l-5.87,10.61c-7.63-3.75-16.21-5.86-25.28-5.86-31.76,0-57.59,25.84-57.59,57.59Z"/><path class="cls-6" d="M378.43,225.3c0,7.35-1.14,14.41-3.26,21.07-1.34,4.23-3.08,8.27-5.16,12.1-1.15,2.12-2.41,4.17-3.78,6.15-3.03,4.43-6.57,8.49-10.53,12.1-2.44,2.23-5.03,4.29-7.77,6.15h-39.21c9.3,0,18.09-2.22,25.88-6.15,6.08-3.07,11.54-7.18,16.14-12.1,1.82-1.93,3.49-3.99,5.02-6.15,2.64-3.73,4.85-7.79,6.55-12.1,2.57-6.53,3.99-13.63,3.99-21.07h12.11Z"/><path class="cls-4" d="M306.14,264.63c.86.06,1.73.09,2.6.09s1.74-.03,2.6-.09h-5.2Z"/><path class="cls-4" d="M520.04,75.97v160.06c0,22.45-18.27,40.7-40.7,40.7h-123.63c3.95-3.61,7.49-7.68,10.53-12.1h113.1c15.76,0,28.59-12.83,28.59-28.6V75.97c0-15.76-12.83-28.59-28.59-28.59H138.18c-15.76,0-28.6,12.83-28.6,28.59v160.06c0,15.76,12.83,28.6,28.6,28.6h167.95c.86.06,1.73.09,2.6.09s1.74-.03,2.6-.09c6.85-.44,13.22-2.65,18.68-6.15,4.84-3.11,8.95-7.26,12.03-12.1h13.71c-1.98,4.4-4.56,8.47-7.62,12.1-1.87,2.22-3.93,4.28-6.14,6.15-8.24,6.98-18.7,11.43-30.17,12.1h-173.64c-22.45,0-40.7-18.26-40.7-40.7V75.97c0-22.45,18.26-40.7,40.7-40.7h341.16c22.44,0,40.7,18.26,40.7,40.7Z"/><path class="cls-7" d="M306,246.37c.89.12,1.81.18,2.74.18s1.84-.06,2.74-.18h-5.48Z"/><path class="cls-7" d="M501.79,75.97v160.06c0,12.38-10.07,22.45-22.45,22.45h-109.32c2.08-3.83,3.82-7.88,5.16-12.1h104.16c5.7,0,10.33-4.65,10.33-10.34V75.97c0-5.7-4.64-10.33-10.33-10.33H138.18c-5.71,0-10.34,4.64-10.34,10.33v160.06c0,5.7,4.64,10.34,10.34,10.34h167.82c.89.12,1.81.18,2.74.18s1.84-.06,2.74-.18h23.1c-5.4,6.64-13.31,11.15-22.27,12.1h-174.13c-12.38,0-22.45-10.07-22.45-22.45V75.97c0-12.38,10.07-22.45,22.45-22.45h341.16c12.38,0,22.45,10.07,22.45,22.45Z"/><path class="cls-6" d="M378.43,219.25v6.06c0,2.06-.09,4.06-.27,6.06h-69.43c-3.34,0-6.06-2.71-6.06-6.06h0c0-3.34,2.71-6.06,6.06-6.06h69.7Z"/></svg>