<?xml version="1.0" encoding="UTF-8"?><svg id="Stacked_Askew" xmlns="http://www.w3.org/2000/svg" viewBox="0 0 300 300"><defs><style>.cls-1{fill:#161e2c;stroke-width:0px;}</style></defs><g id="Stacked_Askew-2"><path class="cls-1" d="M107.06,254.86h-2.06c-1.65,0-3.2.41-4.61,1.24-1.41.83-2.53,1.96-3.32,3.37-.79,1.4-1.2,2.95-1.2,4.59,0,2.51.9,4.67,2.67,6.44,1.77,1.77,3.94,2.67,6.45,2.67h2.06c2.5,0,4.68-.89,6.48-2.66,1.8-1.78,2.72-3.94,2.72-6.45s-.92-4.69-2.71-6.49c-1.8-1.8-3.99-2.71-6.49-2.71Z"/><path class="cls-1" d="M233.01,254.86h-2.07c-3.29,0-5.89,1.42-7.72,4.22l-.96,1.49h19.44l-.96-1.49c-1.83-2.8-4.43-4.22-7.72-4.22Z"/><path class="cls-1" d="M275.71,254.86h-2.07c-1.65,0-3.19.41-4.6,1.24-1.41.83-2.53,1.96-3.32,3.37-.79,1.4-1.2,2.95-1.2,4.59,0,2.51.9,4.67,2.67,6.44,1.77,1.77,3.94,2.67,6.44,2.67h2.07c2.5,0,4.68-.89,6.48-2.66,1.8-1.78,2.72-3.94,2.72-6.45s-.92-4.69-2.71-6.49c-1.8-1.8-3.99-2.71-6.49-2.71Z"/><path class="cls-1" d="M0,0v11.2C3.21,7.2,6.73,3.46,10.51,0H0ZM175.34,84.54c-5.77,49.08-47.61,87.28-98.21,87.28-31.15,0-58.99-14.48-77.13-37.06v17.22c19.92,19.44,47.14,31.44,77.12,31.44,56.99,0,104.05-43.4,109.86-98.88h-11.64ZM143.86,0c.14.13.28.26.42.38,1.17,1.08,1.24,2.9.12,4.04l-12.36,12.59c-1.04,1.06-2.76,1.13-3.86.12-8.92-8.17-19.46-13.98-30.86-17.13h-40.31C25.07,8.87,1.56,38.34,1.47,72.73c-.11,41.81,33.88,75.86,75.66,75.86,37.77,0,69.16-27.82,74.76-64.04h-11.8c-5.49,29.79-31.62,52.43-62.97,52.43-34.97,0-63.49-28.18-64.03-63.02C12.54,38.59,41.77,8.9,77.13,8.9c16.13,0,31.34,5.91,43.16,16.73,1.18,1.08,1.22,2.93.09,4.06l-12.48,12.49c-1.05,1.04-2.72,1.09-3.83.11-7.96-7.01-18.21-10.62-28.97-10.1-20.51.99-37.32,17.5-38.67,37.99-1.57,23.75,17.29,43.56,40.71,43.56,18.46,0,34.09-12.33,39.11-29.19h-39.11c-6.42,0-11.62-5.2-11.62-11.62s5.2-11.62,11.62-11.62h130.85c1.59,0,2.87,1.29,2.87,2.87v130.86c0,3.2-1.3,6.11-3.4,8.21-2.1,2.1-5.01,3.4-8.21,3.4-6.42,0-11.62-5.2-11.62-11.62v-46.83c-24.1,35.27-64.64,58.45-110.5,58.45-28.69,0-55.31-9.09-77.12-24.53v117.87h169.1v-35.94c0-5.26,1.89-9.82,5.61-13.54,3.73-3.73,8.28-5.62,13.54-5.62h2.06c5.25,0,9.81,1.89,13.53,5.62,3.73,3.72,5.61,8.28,5.61,13.54s-1.88,9.81-5.61,13.53c-3.72,3.73-8.27,5.61-13.53,5.61h-2.06c-2.71,0-5.33-.55-7.77-1.65l-1.35-.61v19.05h120.87V0h-156.14ZM60.72,258.6c-.22,1.92-.65,3.8-1.25,5.58-2.37,7.1-7.54,12.93-14.2,16.2-3.56,1.74-7.55,2.75-11.77,2.82-.16,0-.32,0-.48,0-.24,0-.48,0-.73,0-14.82-.38-26.77-12.33-27.14-27.15-.01-.24-.01-.49-.01-.73s0-.48.01-.73c.05-3.54.79-6.97,2.18-10.23,1.45-3.42,3.44-6.39,5.9-8.84,2.46-2.46,5.43-4.44,8.84-5.9,3.26-1.39,6.7-2.12,10.23-2.18.19,0,.37,0,.55,0,1.51,0,3.02.14,4.5.4,1.51.26,2.98.63,4.37,1.08,1.36.45,2.71,1.02,4,1.71s2.52,1.48,3.65,2.35c1.14.87,2.23,1.84,3.24,2.87.75.78,1.47,1.61,2.14,2.5l-9,4.59-.15.08c-1.3-1.37-2.7-2.5-4.23-3.36-.04-.03-.07-.05-.1-.05-2.47-1.31-5.27-2.04-8.25-2.04-9.81,0-17.77,7.96-17.77,17.77s7.96,17.77,17.77,17.77c2.46,0,4.79-.5,6.92-1.4.15-.06.3-.13.46-.2,2.46-1.12,4.62-2.79,6.32-4.85,0,0,0-.01.01-.01,1.51-1.84,2.66-3.98,3.34-6.32h-18.9v-9.95h29.29c.28,1.61.44,3.27.44,4.98,0,1.1-.06,2.2-.19,3.28ZM83.51,254.86h-1.1c-2.5,0-4.68.91-6.45,2.71-1.77,1.8-2.66,3.99-2.66,6.49v19.15h-10.04v-19.15c0-5.26,1.89-9.82,5.61-13.54,3.73-3.73,8.28-5.62,13.54-5.62h1.1v9.96ZM120.59,277.6c-3.73,3.73-8.28,5.61-13.54,5.61h-2.06c-5.27,0-9.82-1.88-13.54-5.61-3.73-3.73-5.61-8.27-5.61-13.53s1.88-9.82,5.61-13.54c3.72-3.73,8.28-5.62,13.54-5.62h2.06c5.26,0,9.81,1.89,13.54,5.62,3.72,3.72,5.61,8.28,5.61,13.54s-1.89,9.81-5.61,13.53ZM166.76,264.06c0,5.2-1.89,9.75-5.62,13.5-3.72,3.75-8.28,5.64-13.54,5.64s-9.73-1.9-13.45-5.64c-3.73-3.75-5.62-8.3-5.62-13.5v-19.16h10.03v19.16c0,2.5.91,4.67,2.68,6.44,1.76,1.77,3.91,2.67,6.36,2.67,1.65,0,3.21-.42,4.61-1.24,1.41-.82,2.52-1.94,3.31-3.31.8-1.38,1.21-2.91,1.21-4.56v-19.16h10.03v19.16ZM251.84,267.55h-29.6l.99,1.49c1.83,2.75,4.42,4.14,7.71,4.14h2.07c2.08,0,3.97-.64,5.6-1.89h12.13c-1.37,3.29-3.54,6.07-6.48,8.24-3.3,2.45-7.09,3.68-11.25,3.68h-2.07c-5.26,0-9.81-1.88-13.53-5.61-3.72-3.73-5.61-8.27-5.61-13.53s1.89-9.82,5.61-13.54c3.73-3.73,8.27-5.62,13.53-5.62h2.07c3.44,0,6.67.87,9.62,2.56,2.94,1.69,5.29,4.04,6.99,6.98,1.69,2.94,2.54,6.18,2.54,9.62,0,1.16-.1,2.33-.32,3.49ZM294.85,264.06c0,5.26-1.88,9.81-5.61,13.53-3.73,3.73-8.27,5.61-13.53,5.61h-2.07c-5.26,0-9.81-1.88-13.53-5.61-3.73-3.73-5.61-8.27-5.61-13.53s1.88-9.82,5.61-13.54c3.73-3.73,8.27-5.62,13.53-5.62h2.07c2.71,0,5.35.56,7.86,1.66l1.34.58v-19.71h9.95v36.63Z"/><path class="cls-1" d="M188.24,273.18h2.07c2.5,0,4.68-.89,6.48-2.66,1.8-1.78,2.72-3.94,2.72-6.45s-.92-4.69-2.71-6.49c-1.8-1.8-3.99-2.71-6.49-2.71h-2.07c-2.51,0-4.67.91-6.45,2.71-1.77,1.8-2.66,3.98-2.66,6.49s.9,4.67,2.67,6.44c1.77,1.77,3.94,2.67,6.44,2.67Z"/></g></svg>