<?xml version="1.0" encoding="UTF-8"?><svg id="Layer_1" xmlns="http://www.w3.org/2000/svg" viewBox="0 0 605.54 150"><defs><style>.cls-1{fill:#fff;stroke-width:0px;}</style></defs><g id="Pill_Tag"><path class="cls-1" d="M75,0c-20.72,0-39.47,8.42-53.05,21.99C8.38,35.56,0,54.32,0,75c0,41.43,33.57,75,75,75h95.16V0h-95.16ZM134.43,119.07c0,2.32-1.87,4.19-4.19,4.19s-4.19-1.87-4.19-4.19v-16.88c-8.7,12.73-23.31,21.07-39.87,21.07-26.74,0-48.5-21.87-48.26-48.74.28-26.5,22.23-48.02,48.74-47.78,12.33.12,23.99,4.87,32.89,13.45.4.4.4,1.04.04,1.44l-4.51,4.51c-.4.4-1,.4-1.4,0-7.98-7.58-18.52-11.5-29.58-10.94-21,1.08-37.68,18.56-37.8,39.56-.12,22.11,17.8,40.11,39.88,40.11,20.56,0,37.56-15.65,39.64-35.68h-4.19c-2.08,17.72-17.16,31.49-35.44,31.49-20,0-36.2-16.53-35.64-36.64.48-19.12,16.25-34.61,35.4-34.72,9.14-.04,17.8,3.31,24.47,9.5.44.4.44,1.08.04,1.48l-4.47,4.55c-.36.36-.96.4-1.36.04-5.35-4.91-12.29-7.46-19.6-7.14-14.49.6-26.1,12.69-26.15,27.18-.04,15.09,12.21,27.38,27.3,27.38,13.65,0,24.95-10.02,26.98-23.11h-4.27c-1.96,10.74-11.38,18.92-22.71,18.92-12.61,0-22.91-10.18-23.11-22.75-.2-12.73,10.38-23.47,23.11-23.47,5.83,0,11.3,2.16,15.57,6.07.44.36.44,1.04.04,1.44l-4.51,4.51c-.36.4-.96.4-1.36.04-2.87-2.51-6.59-3.83-10.46-3.63-7.42.36-13.49,6.31-13.97,13.69-.56,8.58,6.27,15.73,14.69,15.73,6.67,0,12.29-4.43,14.13-10.54h-14.13c-2.32,0-4.19-1.87-4.19-4.19s1.88-4.19,4.19-4.19h47.22c.56,0,1.04.48,1.04,1.04v47.22Z"/><path class="cls-1" d="M338.47,73.96h-2.53c-2.03,0-3.93.51-5.66,1.52-1.73,1.02-3.1,2.4-4.08,4.14-.97,1.73-1.47,3.62-1.47,5.64,0,3.08,1.11,5.74,3.28,7.92,2.17,2.17,4.84,3.28,7.93,3.28h2.53c3.07,0,5.75-1.1,7.96-3.27,2.22-2.18,3.34-4.85,3.34-7.93s-1.13-5.76-3.33-7.98c-2.22-2.21-4.9-3.32-7.97-3.32Z"/><path class="cls-1" d="M493.23,73.96h-2.54c-4.04,0-7.24,1.74-9.49,5.19l-1.18,1.83h23.89l-1.18-1.83c-2.25-3.44-5.45-5.19-9.49-5.19Z"/><path class="cls-1" d="M597.54.12H178.92v149.75h418.62c4.42,0,8-3.58,8-8V8.12c0-4.42-3.58-8-8-8ZM281.53,78.56c-.27,2.37-.8,4.67-1.53,6.86-2.92,8.73-9.27,15.9-17.44,19.91-4.37,2.14-9.28,3.38-14.47,3.46-.19,0-.39,0-.58,0-.3,0-.59,0-.9,0-18.22-.47-32.89-15.14-33.36-33.36,0-.3,0-.6,0-.9s0-.59,0-.89c.07-4.35.97-8.57,2.68-12.57,1.79-4.2,4.22-7.85,7.24-10.87,3.02-3.02,6.68-5.46,10.87-7.25,4.01-1.71,8.23-2.61,12.57-2.67.23,0,.45,0,.67,0,1.85,0,3.71.17,5.53.48,1.86.33,3.66.78,5.36,1.33,1.68.55,3.33,1.25,4.92,2.1,1.59.85,3.1,1.82,4.49,2.88,1.4,1.07,2.74,2.26,3.98,3.53.93.96,1.81,1.98,2.63,3.06l-11.06,5.65-.19.09c-1.59-1.69-3.32-3.07-5.2-4.14-.04-.03-.08-.05-.12-.06-3.03-1.61-6.47-2.5-10.14-2.5-12.06,0-21.84,9.78-21.84,21.84s9.78,21.84,21.84,21.84c3.02,0,5.89-.61,8.5-1.72.19-.08.37-.16.56-.25,3.02-1.38,5.68-3.43,7.77-5.96,0,0,0-.02.02-.02,1.86-2.26,3.27-4.89,4.11-7.77h-23.23v-12.23h35.99c.36,1.98.54,4.03.54,6.12,0,1.36-.08,2.71-.24,4.03ZM309.53,73.96h-1.35c-3.08,0-5.75,1.12-7.93,3.33-2.17,2.21-3.27,4.89-3.27,7.97v23.53h-12.34v-23.53c0-6.46,2.33-12.06,6.9-16.64,4.58-4.58,10.18-6.9,16.64-6.9h1.35v12.23ZM355.1,101.9c-4.58,4.58-10.17,6.9-16.63,6.9h-2.53c-6.47,0-12.06-2.32-16.64-6.9-4.58-4.58-6.9-10.17-6.9-16.63s2.32-12.06,6.9-16.64c4.58-4.58,10.18-6.9,16.64-6.9h2.53c6.46,0,12.06,2.32,16.63,6.9,4.58,4.58,6.9,10.18,6.9,16.64s-2.32,12.06-6.9,16.63ZM411.83,85.27c0,6.4-2.32,11.98-6.9,16.59-4.57,4.6-10.17,6.94-16.63,6.94s-11.95-2.33-16.53-6.94c-4.58-4.61-6.9-10.19-6.9-16.59v-23.54h12.33v23.54c0,3.08,1.11,5.74,3.28,7.92,2.17,2.17,4.81,3.28,7.82,3.28,2.03,0,3.93-.52,5.66-1.53,1.73-1.01,3.1-2.38,4.07-4.07.98-1.69,1.48-3.58,1.48-5.6v-23.54h12.33v23.54ZM457.4,101.9c-4.58,4.58-10.17,6.9-16.63,6.9h-2.54c-3.32,0-6.54-.68-9.54-2.02l-1.66-.74v24.24h-12.33v-45c0-6.46,2.32-12.06,6.9-16.64,4.58-4.58,10.17-6.9,16.63-6.9h2.54c6.46,0,12.06,2.32,16.63,6.9,4.58,4.58,6.9,10.18,6.9,16.64s-2.32,12.06-6.9,16.63ZM516.37,89.56h-36.38l1.22,1.83c2.25,3.38,5.44,5.08,9.48,5.08h2.54c2.55,0,4.87-.79,6.89-2.33h14.91c-1.68,4.04-4.35,7.45-7.96,10.13-4.06,3-8.71,4.53-13.83,4.53h-2.54c-6.46,0-12.06-2.32-16.63-6.9-4.58-4.58-6.9-10.17-6.9-16.63s2.32-12.06,6.9-16.64c4.58-4.58,10.17-6.9,16.63-6.9h2.54c4.22,0,8.2,1.06,11.82,3.14,3.61,2.07,6.5,4.97,8.58,8.58,2.08,3.61,3.13,7.59,3.13,11.82,0,1.42-.13,2.86-.39,4.29ZM569.23,85.27c0,6.46-2.32,12.06-6.9,16.63-4.58,4.58-10.17,6.9-16.63,6.9h-2.54c-6.46,0-12.06-2.32-16.63-6.9-4.58-4.58-6.9-10.17-6.9-16.63s2.32-12.06,6.9-16.64c4.58-4.58,10.17-6.9,16.63-6.9h2.54c3.33,0,6.58.69,9.65,2.03l1.65.72v-24.21h12.22v45Z"/><path class="cls-1" d="M440.77,73.96h-2.54c-3.08,0-5.74,1.12-7.93,3.33-2.17,2.21-3.27,4.89-3.27,7.97s1.11,5.74,3.28,7.92c2.17,2.17,4.84,3.28,7.92,3.28h2.54c3.07,0,5.75-1.1,7.96-3.27,2.22-2.18,3.34-4.85,3.34-7.93s-1.13-5.76-3.33-7.98c-2.22-2.21-4.9-3.32-7.97-3.32Z"/><path class="cls-1" d="M545.7,73.96h-2.54c-2.02,0-3.93.51-5.65,1.52-1.73,1.02-3.1,2.4-4.08,4.14-.97,1.73-1.47,3.62-1.47,5.64,0,3.08,1.11,5.74,3.28,7.92,2.17,2.17,4.84,3.28,7.92,3.28h2.54c3.07,0,5.75-1.1,7.96-3.27,2.22-2.18,3.34-4.85,3.34-7.93s-1.13-5.76-3.33-7.98c-2.22-2.21-4.9-3.32-7.97-3.32Z"/></g></svg>