<?xml version="1.0" encoding="UTF-8"?><svg id="Vinyl_G_Icon" xmlns="http://www.w3.org/2000/svg" viewBox="0 0 300 300"><defs><style>.cls-1{fill:#e9e3d9;stroke-width:0px;}</style></defs><path id="Cream" class="cls-1" d="M296.78,136.97h-146.77c-7.2,0-13.03,5.83-13.03,13.03s5.83,13.03,13.03,13.03h43.87c-5.63,18.91-23.16,32.74-43.87,32.74-26.26,0-47.43-22.23-45.67-48.86,1.52-22.98,20.37-41.5,43.38-42.61,12.08-.58,23.58,3.47,32.5,11.33,1.25,1.1,3.12,1.05,4.3-.13l14-14c1.27-1.27,1.22-3.34-.1-4.55-13.26-12.12-30.33-18.76-48.41-18.76-39.67,0-72.45,33.3-71.82,72.97.61,39.08,32.6,70.69,71.82,70.69,35.16,0,64.47-25.4,70.62-58.8h13.24c-6.29,40.63-41.5,71.83-83.86,71.83-46.87,0-84.99-38.2-84.86-85.09.12-45.12,36.19-82.7,81.27-84.56,22.65-.94,44.26,7.01,60.84,22.2,1.24,1.13,3.16,1.06,4.33-.14l13.87-14.12c1.25-1.27,1.18-3.32-.13-4.53-20.77-19.25-47.68-29.74-76.07-29.55-59.54.39-108.58,48.44-110.14,107.96-1.64,62.51,48.74,113.89,110.89,113.89,56.76,0,103.69-42.85,110.16-97.9h13.06c-6.52,62.23-59.3,110.9-123.22,110.9-68.6,0-124.33-55.98-123.93-124.67.38-65.34,52.19-119.71,117.44-123.03,34.39-1.75,67.16,10.45,91.91,34.02,1.25,1.19,3.2,1.19,4.42-.03l13.94-13.99c1.23-1.24,1.23-3.26-.02-4.47C226.03,15.1,189.86.37,151.45,0,69.03-.77.81,66.09,0,148.5c-.82,83.44,66.81,151.5,149.99,151.5,51.43,0,96.91-25.99,123.94-65.56v52.52c0,7.2,5.83,13.03,13.03,13.03h0c7.2,0,13.03-5.83,13.03-13.03v-146.78c0-1.78-1.44-3.22-3.22-3.22Z"/></svg>