<?xml version="1.0" encoding="UTF-8"?><svg id="Layer_10" xmlns="http://www.w3.org/2000/svg" viewBox="0 0 632.87 150"><defs><style>.cls-1{fill:#161e2c;stroke-width:0px;}</style></defs><g id="Lockup_Horizontal"><path class="cls-1" d="M301.83,58.79c-7.98,0-14.9,2.86-20.55,8.51-5.64,5.65-8.51,12.57-8.51,20.55v29.05h15.23v-29.05c0-3.8,1.36-7.11,4.04-9.84,2.68-2.74,5.99-4.12,9.79-4.12h1.67v-15.1h-1.67Z"/><path class="cls-1" d="M361.51,67.3c-5.65-5.65-12.56-8.51-20.54-8.51h-3.12c-7.98,0-14.9,2.86-20.55,8.51-5.65,5.65-8.51,12.57-8.51,20.55s2.86,14.88,8.51,20.54c5.65,5.65,12.56,8.51,20.55,8.51h3.12c7.98,0,14.88-2.86,20.54-8.51,5.65-5.65,8.51-12.56,8.51-20.54s-2.86-14.9-8.51-20.55ZM350.8,97.64c-2.73,2.68-6.04,4.04-9.83,4.04h-3.12c-3.81,0-7.1-1.37-9.79-4.05-2.68-2.68-4.05-5.97-4.05-9.78,0-2.5.62-4.84,1.82-6.97,1.2-2.14,2.89-3.85,5.03-5.11,2.13-1.25,4.48-1.88,6.99-1.88h3.12c3.79,0,7.1,1.38,9.84,4.11,2.73,2.74,4.12,6.05,4.12,9.85s-1.39,7.09-4.13,9.79Z"/><path class="cls-1" d="M418.08,58.79v29.06c0,2.5-.62,4.83-1.83,6.91-1.2,2.09-2.89,3.78-5.02,5.02-2.13,1.25-4.48,1.89-6.99,1.89-3.72,0-6.97-1.37-9.65-4.05-2.68-2.68-4.05-5.97-4.05-9.78v-29.06h-15.22v29.06c0,7.9,2.86,14.79,8.51,20.48,5.65,5.68,12.51,8.57,20.41,8.57s14.9-2.88,20.54-8.57c5.66-5.69,8.52-12.59,8.52-20.48v-29.06h-15.22Z"/><path class="cls-1" d="M491.31,67.3c-5.65-5.65-12.57-8.51-20.54-8.51h-3.13c-7.98,0-14.88,2.86-20.54,8.51-5.65,5.65-8.51,12.57-8.51,20.55v55.56h15.22v-29.93l2.05.92c3.71,1.66,7.68,2.5,11.78,2.5h3.13c7.98,0,14.88-2.86,20.54-8.51,5.65-5.65,8.51-12.56,8.51-20.54s-2.86-14.9-8.51-20.55ZM480.6,97.64c-2.73,2.68-6.04,4.04-9.83,4.04h-3.13c-3.8,0-7.09-1.37-9.78-4.05-2.68-2.68-4.05-5.97-4.05-9.78s1.36-7.11,4.04-9.84c2.69-2.74,5.99-4.12,9.79-4.12h3.13c3.79,0,7.1,1.38,9.84,4.11,2.73,2.74,4.12,6.05,4.12,9.85s-1.39,7.09-4.13,9.79Z"/><path class="cls-1" d="M566.35,87.85c0-5.22-1.3-10.13-3.86-14.59-2.57-4.46-6.13-8.03-10.59-10.59-4.47-2.57-9.38-3.88-14.59-3.88h-3.13c-7.98,0-14.88,2.86-20.54,8.51-5.65,5.65-8.51,12.57-8.51,20.55s2.86,14.88,8.51,20.54c5.65,5.65,12.56,8.51,20.54,8.51h3.13c6.32,0,12.06-1.88,17.08-5.59,4.46-3.3,7.76-7.51,9.83-12.5h-18.4c-2.49,1.9-5.35,2.87-8.5,2.87h-3.13c-4.99,0-8.93-2.11-11.71-6.28l-1.5-2.26h44.92c.32-1.77.48-3.54.48-5.3ZM520.98,82.55l1.46-2.26c2.78-4.25,6.73-6.4,11.72-6.4h3.13c4.99,0,8.94,2.15,11.72,6.4l1.46,2.26h-29.5Z"/><path class="cls-1" d="M617.78,32.29v29.89l-2.04-.89c-3.79-1.66-7.8-2.51-11.92-2.51h-3.13c-7.98,0-14.88,2.86-20.54,8.51s-8.51,12.57-8.51,20.55,2.86,14.88,8.51,20.54c5.65,5.65,12.56,8.51,20.54,8.51h3.13c7.98,0,14.88-2.86,20.54-8.51,5.65-5.65,8.51-12.56,8.51-20.54v-55.56h-15.09ZM613.65,97.64c-2.73,2.68-6.04,4.04-9.83,4.04h-3.13c-3.8,0-7.09-1.37-9.78-4.05-2.68-2.68-4.05-5.97-4.05-9.78,0-2.5.62-4.84,1.82-6.97,1.2-2.14,2.89-3.85,5.03-5.11,2.13-1.25,4.48-1.88,6.98-1.88h3.13c3.79,0,7.1,1.38,9.84,4.11,2.73,2.74,4.12,6.05,4.12,9.85s-1.39,7.09-4.13,9.79Z"/><path class="cls-1" d="M267.48,74.59c0,1.68-.09,3.34-.29,4.97-.33,2.92-.98,5.77-1.89,8.47-3.6,10.78-11.45,19.63-21.54,24.58-5.4,2.64-11.46,4.17-17.86,4.27-.24.01-.48.01-.72.01-.37,0-.73,0-1.11-.01-22.49-.57-40.61-18.7-41.19-41.19-.01-.38-.01-.74-.01-1.11s0-.73.01-1.1c.08-5.37,1.2-10.58,3.31-15.52,2.2-5.18,5.21-9.69,8.94-13.42,3.73-3.73,8.24-6.74,13.42-8.95,4.95-2.11,10.16-3.22,15.52-3.3.28,0,.55-.01.83-.01,2.29.01,4.59.21,6.83.6,2.3.41,4.52.96,6.62,1.64,2.07.68,4.12,1.55,6.08,2.59,1.96,1.04,3.83,2.25,5.55,3.56,1.73,1.33,3.38,2.79,4.91,4.36,1.15,1.18,2.24,2.44,3.25,3.78l-13.65,6.98-.23.11c-1.96-2.09-4.11-3.79-6.42-5.11-.05-.04-.09-.06-.15-.07-3.74-1.98-7.99-3.09-12.51-3.09-14.88,0-26.96,12.07-26.96,26.96s12.07,26.96,26.96,26.96c3.73,0,7.27-.75,10.5-2.12.23-.09.46-.2.69-.31,3.73-1.7,7.01-4.23,9.6-7.35,0-.01.01-.02.02-.02,2.3-2.79,4.04-6.04,5.08-9.6h-28.68v-15.1h44.43c.44,2.44.67,4.97.67,7.55Z"/><path class="cls-1" d="M148.39,68.48h-73.39c-3.6,0-6.52,2.92-6.52,6.52s2.92,6.52,6.52,6.52h21.93c-2.81,9.45-11.58,16.37-21.93,16.37-13.13,0-23.71-11.12-22.83-24.43.76-11.49,10.19-20.75,21.69-21.31,6.04-.29,11.79,1.73,16.25,5.66.62.55,1.56.52,2.15-.06l7-7c.63-.63.61-1.67-.05-2.28-6.63-6.06-15.16-9.38-24.21-9.38-19.84,0-36.22,16.65-35.91,36.48.31,19.54,16.3,35.34,35.91,35.34,17.58,0,32.24-12.7,35.31-29.4h6.62c-3.14,20.31-20.75,35.92-41.93,35.92-23.44,0-42.49-19.1-42.43-42.55.06-22.56,18.09-41.35,40.64-42.28,11.32-.47,22.13,3.51,30.42,11.1.62.57,1.58.53,2.17-.07l6.93-7.06c.63-.64.59-1.66-.06-2.27-10.39-9.63-23.84-14.87-38.03-14.78-29.77.2-54.29,24.22-55.07,53.98-.82,31.26,24.37,56.95,55.45,56.95,28.38,0,51.85-21.43,55.08-48.95h6.53c-3.26,31.11-29.65,55.45-61.61,55.45-34.3,0-62.17-27.99-61.97-62.34.19-32.67,26.1-59.86,58.72-61.52,17.19-.88,33.58,5.23,45.95,17.01.62.59,1.6.59,2.21-.02l6.97-7c.62-.62.62-1.63-.01-2.23C113.02,7.55,94.93.18,75.72,0,34.51-.38.41,33.04,0,74.25c-.41,41.72,33.4,75.75,75,75.75,25.72,0,48.45-13,61.97-32.78v26.26c0,3.6,2.92,6.52,6.52,6.52h0c3.6,0,6.52-2.92,6.52-6.52v-73.39c0-.89-.72-1.61-1.61-1.61Z"/></g></svg>