<?xml version="1.0" encoding="UTF-8"?><svg id="Stacked_Window" xmlns="http://www.w3.org/2000/svg" viewBox="0 0 327.72 404.73"><defs><style>.cls-1{fill:#e9e3d9;stroke-width:0px;}</style></defs><g id="Stacked_Window-2"><path class="cls-1" d="M99.61,332.14c-5,0-9.33,1.79-12.87,5.33-3.53,3.54-5.33,7.87-5.33,12.87v18.2h9.54v-18.2c0-2.38.85-4.46,2.53-6.17,1.68-1.71,3.75-2.58,6.13-2.58h1.05v-9.46h-1.05Z"/><path class="cls-1" d="M135.91,337.48c-3.54-3.54-7.87-5.33-12.87-5.33h-1.96c-5,0-9.33,1.79-12.87,5.33-3.54,3.54-5.33,7.87-5.33,12.87s1.79,9.33,5.33,12.87c3.54,3.54,7.87,5.33,12.87,5.33h1.96c5,0,9.33-1.79,12.87-5.33,3.54-3.54,5.33-7.87,5.33-12.87s-1.79-9.33-5.33-12.87ZM129.2,356.48c-1.71,1.68-3.78,2.53-6.16,2.53h-1.96c-2.39,0-4.45-.86-6.13-2.54-1.68-1.68-2.54-3.74-2.54-6.13,0-1.56.39-3.03,1.14-4.37.75-1.34,1.81-2.42,3.15-3.2,1.34-.79,2.81-1.18,4.38-1.18h1.96c2.38,0,4.45.86,6.17,2.57,1.71,1.71,2.58,3.79,2.58,6.17s-.87,4.44-2.59,6.13Z"/><path class="cls-1" d="M170.26,332.14v18.21c0,1.56-.39,3.02-1.15,4.33-.75,1.31-1.81,2.37-3.15,3.15-1.34.79-2.81,1.18-4.38,1.18-2.33,0-4.37-.86-6.05-2.54-1.68-1.68-2.54-3.74-2.54-6.13v-18.21h-9.54v18.21c0,4.95,1.79,9.27,5.33,12.83,3.54,3.56,7.84,5.37,12.79,5.37s9.33-1.81,12.87-5.37c3.55-3.57,5.34-7.89,5.34-12.83v-18.21h-9.54Z"/><path class="cls-1" d="M215.05,337.48c-3.54-3.54-7.87-5.33-12.87-5.33h-1.96c-5,0-9.33,1.79-12.87,5.33-3.54,3.54-5.33,7.87-5.33,12.87v39.19h9.54v-23.13l1.28.58c2.32,1.04,4.81,1.56,7.38,1.56h1.96c5,0,9.33-1.79,12.87-5.33,3.54-3.54,5.33-7.87,5.33-12.87s-1.79-9.33-5.33-12.87ZM208.34,356.48c-1.71,1.68-3.78,2.53-6.16,2.53h-1.96c-2.38,0-4.44-.86-6.13-2.54-1.68-1.68-2.54-3.74-2.54-6.13s.85-4.46,2.53-6.17c1.69-1.71,3.75-2.58,6.13-2.58h1.96c2.38,0,4.45.86,6.17,2.57,1.71,1.71,2.58,3.79,2.58,6.17s-.87,4.44-2.59,6.13Z"/><path class="cls-1" d="M260.97,350.35c0-3.27-.81-6.35-2.42-9.14-1.61-2.79-3.84-5.03-6.64-6.64-2.8-1.61-5.88-2.43-9.14-2.43h-1.96c-5,0-9.33,1.79-12.87,5.33-3.54,3.54-5.33,7.87-5.33,12.87s1.79,9.33,5.33,12.87c3.54,3.54,7.87,5.33,12.87,5.33h1.96c3.96,0,7.56-1.18,10.7-3.5,2.79-2.07,4.86-4.71,6.16-7.83h-11.53c-1.56,1.19-3.35,1.8-5.33,1.8h-1.96c-3.13,0-5.6-1.32-7.34-3.93l-.94-1.41h28.14c.2-1.11.3-2.22.3-3.32ZM232.55,347.03l.92-1.41c1.74-2.66,4.21-4.01,7.34-4.01h1.96c3.13,0,5.6,1.35,7.34,4.01l.92,1.41h-18.48Z"/><path class="cls-1" d="M292.11,315.54v18.73l-1.28-.56c-2.38-1.04-4.89-1.57-7.47-1.57h-1.96c-5,0-9.33,1.79-12.87,5.33-3.54,3.54-5.33,7.87-5.33,12.87s1.79,9.33,5.33,12.87c3.54,3.54,7.87,5.33,12.87,5.33h1.96c5,0,9.33-1.79,12.87-5.33,3.54-3.54,5.33-7.87,5.33-12.87v-34.81h-9.46ZM289.52,356.48c-1.71,1.68-3.78,2.53-6.16,2.53h-1.96c-2.38,0-4.44-.86-6.13-2.54-1.68-1.68-2.54-3.74-2.54-6.13,0-1.56.39-3.03,1.14-4.37.75-1.34,1.81-2.42,3.15-3.2,1.34-.79,2.81-1.18,4.37-1.18h1.96c2.38,0,4.45.86,6.17,2.57,1.71,1.71,2.58,3.79,2.58,6.17s-.87,4.44-2.59,6.13Z"/><path class="cls-1" d="M79.18,342.04c0,1.05-.06,2.09-.18,3.12-.21,1.83-.62,3.61-1.18,5.31-2.26,6.75-7.17,12.3-13.5,15.4-3.38,1.66-7.18,2.61-11.19,2.68-.15,0-.3,0-.45,0-.23,0-.46,0-.69,0-14.09-.36-25.45-11.72-25.81-25.81,0-.24,0-.46,0-.69s0-.46,0-.69c.05-3.36.75-6.63,2.07-9.73,1.38-3.25,3.27-6.07,5.6-8.41,2.34-2.34,5.16-4.22,8.41-5.61,3.1-1.32,6.37-2.02,9.73-2.07.18,0,.35,0,.52,0,1.43,0,2.87.13,4.28.37,1.44.26,2.83.6,4.15,1.03,1.3.43,2.58.97,3.81,1.62,1.23.65,2.4,1.41,3.48,2.23,1.09.83,2.12,1.75,3.08,2.73.72.74,1.4,1.53,2.04,2.37l-8.55,4.37-.14.07c-1.23-1.31-2.57-2.38-4.03-3.2-.03-.03-.06-.04-.09-.05-2.34-1.24-5.01-1.94-7.84-1.94-9.33,0-16.89,7.57-16.89,16.89s7.57,16.89,16.89,16.89c2.34,0,4.56-.47,6.58-1.33.14-.06.29-.12.43-.2,2.34-1.07,4.39-2.65,6.01-4.61,0,0,0-.01.01-.01,1.44-1.75,2.53-3.78,3.18-6.01h-17.97v-9.46h27.84c.27,1.53.42,3.12.42,4.73Z"/><path class="cls-1" d="M285.67,153.05h-121.81c-5.97,0-10.81,4.84-10.81,10.82s4.84,10.82,10.81,10.82h36.4c-4.67,15.69-19.22,27.17-36.4,27.17-21.79,0-39.36-18.45-37.9-40.55,1.26-19.07,16.91-34.44,36-35.36,10.02-.48,19.57,2.88,26.97,9.4,1.03.91,2.59.87,3.57-.1l11.62-11.62c1.05-1.05,1.01-2.77-.08-3.78-11.01-10.06-25.17-15.57-40.18-15.57-32.92,0-60.12,27.64-59.61,60.56.51,32.43,27.05,58.66,59.61,58.66,29.18,0,53.51-21.08,58.61-48.8h10.98c-5.22,33.72-34.44,59.61-69.6,59.61-38.9,0-70.53-31.7-70.43-70.62.1-37.45,30.03-68.63,67.45-70.18,18.8-.78,36.73,5.82,50.49,18.43,1.03.94,2.62.88,3.6-.11l11.51-11.72c1.04-1.06.98-2.76-.11-3.76-17.24-15.98-39.57-24.68-63.13-24.52-49.41.33-90.11,40.2-91.4,89.6-1.36,51.88,40.45,94.52,92.03,94.52,47.1,0,86.05-35.56,91.42-81.24h10.84c-5.41,51.64-49.21,92.04-102.26,92.04-56.93,0-103.18-46.46-102.85-103.46.32-54.22,43.31-99.35,97.47-102.1,28.54-1.45,55.74,8.68,76.27,28.24,1.03.99,2.66.99,3.66-.03l11.57-11.61c1.02-1.03,1.02-2.7-.02-3.71-23.01-22.13-53.02-34.35-84.9-34.65-68.4-.64-125.01,54.84-125.68,123.24-.68,69.24,55.44,125.72,124.48,125.72,42.68,0,80.42-21.57,102.85-54.4v43.59c0,5.97,4.84,10.82,10.81,10.82h0c5.97,0,10.81-4.84,10.81-10.82v-121.81c0-1.48-1.2-2.67-2.67-2.67Z"/><path class="cls-1" d="M327.72,404.73H0v-240.87C0,73.51,73.51,0,163.87,0s163.85,73.51,163.85,163.87v240.87ZM17.34,387.39h293.04v-223.52c0-80.79-65.72-146.53-146.51-146.53S17.34,83.07,17.34,163.87v223.52Z"/></g></svg>