<?xml version="1.0" encoding="UTF-8"?><svg id="Layer_1" xmlns="http://www.w3.org/2000/svg" viewBox="0 0 502.91 304.52"><defs><style>.cls-1{font-size:84.56px;letter-spacing:0em;}.cls-1,.cls-2,.cls-3{fill:#231f20;}.cls-1,.cls-3{font-family:GambarRegular, Gambar;}.cls-4{letter-spacing:.01em;}.cls-2{stroke-width:0px;}.cls-5{letter-spacing:0em;}.cls-6{letter-spacing:0em;}.cls-3{font-size:62.92px;}.cls-7{letter-spacing:-.02em;}</style></defs><text class="cls-1" transform="translate(77.9 125.92)"><tspan x="0" y="0">Grouped</tspan></text><text class="cls-3" transform="translate(72.76 214.64)"><tspan class="cls-7" x="0" y="0">2</tspan><tspan class="cls-5" x="43.98" y="0">0</tspan></text><text class="cls-3" transform="translate(340.17 214.64)"><tspan class="cls-6" x="0" y="0">2</tspan><tspan class="cls-4" x="44.92" y="0">6</tspan></text><path class="cls-2" d="M327.78,221.55v6.63c0,2.26-.1,4.45-.3,6.63h-76.06c-3.66,0-6.63-2.97-6.63-6.63h0c0-3.66,2.97-6.63,6.63-6.63h76.36Z"/><path class="cls-2" d="M208.48,291.26c12.24,8.37,27.04,13.26,42.95,13.26s30.71-4.89,42.95-13.26h-85.9Z"/><path class="cls-2" d="M294.62,228.18c0,8.49-2.46,16.4-6.7,23.08h15.02c3.17-7.05,4.94-14.86,4.94-23.08h-13.26ZM194.98,228.17c0,8.22,1.77,16.04,4.94,23.09h15.02c-4.24-6.68-6.7-14.6-6.7-23.09,0-23.81,19.37-43.19,43.19-43.19,6.44,0,12.55,1.42,18.04,3.95l6.44-11.63c-7.41-3.57-15.71-5.58-24.48-5.58-31.13,0-56.45,25.32-56.45,56.45ZM248.05,284.52c1.12.07,2.24.1,3.38.1s2.26-.03,3.38-.1h-6.76Z"/><path class="cls-2" d="M247.52,264.52c1.28.14,2.59.21,3.91.21s2.63-.07,3.91-.21h-7.82ZM274.72,228.18c0,11.82-8.86,21.61-20.29,23.08h25.31c5.15-6.3,8.24-14.33,8.24-23.08h-13.26ZM251.43,204.88c2.95,0,5.77.55,8.36,1.55l6.46-11.67c-4.53-2.02-9.55-3.14-14.82-3.14-20.16,0-36.56,16.39-36.56,36.55,0,8.75,3.09,16.79,8.24,23.09h25.32c-11.43-1.47-20.29-11.27-20.29-23.09,0-12.84,10.45-23.29,23.29-23.29Z"/><path class="cls-2" d="M438.32,0H64.59C28.97,0,0,28.98,0,64.59v175.34c0,35.61,28.97,64.59,64.59,64.59h373.73c35.61,0,64.59-28.98,64.59-64.59V64.59c0-35.61-28.98-64.59-64.59-64.59ZM489.64,239.93c0,28.3-23.02,51.33-51.32,51.33H64.59c-28.3,0-51.33-23.03-51.33-51.33V64.59c0-28.3,23.03-51.32,51.33-51.32h373.73c28.3,0,51.32,23.02,51.32,51.32v175.34Z"/><path class="cls-2" d="M188.34,228.17c0,8.15,1.55,15.94,4.37,23.09h-14.06c-2.32-7.29-3.57-15.04-3.57-23.09,0-42.1,34.25-76.35,76.35-76.35,12.26,0,23.85,2.9,34.12,8.06l-6.43,11.62c-8.36-4.11-17.76-6.42-27.69-6.42-34.79,0-63.09,28.31-63.09,63.09Z"/><path class="cls-2" d="M327.78,228.18c0,8.05-1.25,15.79-3.57,23.08-1.47,4.63-3.37,9.06-5.65,13.26-1.26,2.32-2.64,4.57-4.14,6.74-3.32,4.85-7.2,9.3-11.53,13.26-2.67,2.44-5.51,4.7-8.51,6.74h-42.95c10.19,0,19.82-2.43,28.35-6.74,6.66-3.36,12.64-7.87,17.68-13.26,1.99-2.12,3.82-4.37,5.5-6.74,2.89-4.09,5.31-8.53,7.18-13.26,2.82-7.15,4.37-14.93,4.37-23.08h13.27Z"/><path class="cls-2" d="M248.58,271.26c.94.07,1.89.1,2.85.1s1.91-.03,2.85-.1h-5.7Z"/><path class="cls-2" d="M482.91,64.59v175.34c0,24.59-20.01,44.59-44.59,44.59h-135.43c4.33-3.96,8.21-8.41,11.53-13.26h123.9c17.27,0,31.32-14.06,31.32-31.33V64.59c0-17.27-14.05-31.32-31.32-31.32H64.59c-17.27,0-31.33,14.05-31.33,31.32v175.34c0,17.27,14.06,31.33,31.33,31.33h183.99c.94.07,1.89.1,2.85.1s1.91-.03,2.85-.1c7.5-.48,14.48-2.9,20.46-6.74,5.3-3.41,9.8-7.95,13.18-13.26h15.02c-2.17,4.82-4.99,9.28-8.35,13.26-2.05,2.43-4.31,4.69-6.73,6.74-9.03,7.65-20.49,12.52-33.05,13.26H64.59c-24.59,0-44.59-20-44.59-44.59V64.59c0-24.59,20-44.59,44.59-44.59h373.73c24.58,0,44.59,20,44.59,44.59Z"/><path class="cls-2" d="M248.43,251.26c.98.13,1.98.2,3,.2s2.02-.07,3-.2h-6Z"/><path class="cls-2" d="M462.91,64.59v175.34c0,13.56-11.03,24.59-24.59,24.59h-119.76c2.28-4.2,4.18-8.63,5.65-13.26h114.11c6.24,0,11.32-5.09,11.32-11.33V64.59c0-6.24-5.08-11.32-11.32-11.32H64.59c-6.25,0-11.33,5.08-11.33,11.32v175.34c0,6.24,5.08,11.33,11.33,11.33h183.84c.98.13,1.98.2,3,.2s2.02-.07,3-.2h25.31c-5.92,7.27-14.58,12.21-24.4,13.26H64.59c-13.56,0-24.59-11.03-24.59-24.59V64.59c0-13.56,11.03-24.59,24.59-24.59h373.73c13.56,0,24.59,11.03,24.59,24.59Z"/></svg>